<?xml version="1.0" standalone="no"?>
<!DOCTYPE svg PUBLIC "-//W3C//DTD SVG 1.1//EN" "http://www.w3.org/Graphics/SVG/1.1/DTD/svg11.dtd" >
<svg>
<metadata>
Created by FontForge 20120731 at Mon Jul  1 04:14:49 2019
 By www
Copyright (c) 1985, 1987, 1990, 2001 Adobe Systems Incorporated.  All Rights Reserved. Copyright (c) 1985, 1987, 1990, 2001 International Typeface Corporation. All Rights Reserved. 
</metadata>
<defs>
<font id="ITCMachineW03-Medium" horiz-adv-x="480" >
  <font-face 
    font-family="ITCMachineW03-Medium"
    font-weight="500"
    font-stretch="normal"
    units-per-em="1000"
    panose-1="1 0 0 0 0 0 0 0 0 0"
    ascent="800"
    descent="-200"
    x-height="717"
    cap-height="717"
    bbox="-154 -303 1165 933"
    underline-thickness="50"
    underline-position="-125"
    unicode-range="U+0020-FB02"
  />
<missing-glyph horiz-adv-x="500" 
d="M0 700h500v-700h-500v700zM420 650h-340l170 -255zM450 95v510l-170 -255zM420 50l-170 255l-170 -255h340zM50 95l170 255l-170 255v-510z" />
    <glyph glyph-name="uniFB01" unicode="fi" horiz-adv-x="620" 
d="M358 582h-155v-135h126v-135h-126v-312h-165v717h320v-135zM572 0h-165v717h165v-717z" />
    <glyph glyph-name="uniFB02" unicode="fl" horiz-adv-x="720" 
d="M358 582h-155v-135h126v-135h-126v-312h-165v717h320v-135zM568 135h149v-135h-314v717h165v-582z" />
    <glyph glyph-name=".notdef" horiz-adv-x="500" 
d="M0 700h500v-700h-500v700zM420 650h-340l170 -255zM450 95v510l-170 -255zM420 50l-170 255l-170 -255h340zM50 95l170 255l-170 255v-510z" />
    <glyph glyph-name=".null" horiz-adv-x="0" 
 />
    <glyph glyph-name="nonmarkingreturn" horiz-adv-x="333" 
 />
    <glyph glyph-name="space" unicode=" " horiz-adv-x="280" 
 />
    <glyph glyph-name="exclam" unicode="!" horiz-adv-x="360" 
d="M263 499l-49 -296h-68l-48 296v218h165v-218zM263 0h-165v138h165v-138z" />
    <glyph glyph-name="quotedbl" unicode="&#x22;" horiz-adv-x="440" 
d="M277 446l-25 271h119l-25 -271h-69zM94 446l-25 271h119l-25 -271h-69z" />
    <glyph glyph-name="numbersign" unicode="#" horiz-adv-x="600" 
d="M520 226h-102l-32 -226h-89l31 226h-85l-32 -226h-88l31 226h-100v95h114l13 89h-99v95h111l30 212h87l-29 -212h86l29 212h90l-30 -212h90v-95h-103l-12 -89h89v-95zM268 410l-12 -89h85l13 89h-86z" />
    <glyph glyph-name="dollar" unicode="$" horiz-adv-x="460" 
d="M318 717l109 -107v-124h-145v96h-104v-147l145 -12l114 -102v-217l-114 -104h-54v-77h-85v77h-47l-114 104v125h155v-95h104v148l-145 11l-114 101v216l114 107h47v73h85v-73h49z" />
    <glyph glyph-name="percent" unicode="%" horiz-adv-x="900" 
d="M374 0h-75l231 717h71zM186 625v-263h50v263h-50zM664 355v-263h50v263h-50zM345 338l-70 -68h-128l-70 68v309l70 70h128l70 -70v-309zM823 68l-70 -68h-128l-70 68v309l70 70h128l70 -70v-309z" />
    <glyph glyph-name="ampersand" unicode="&#x26;" horiz-adv-x="640" 
d="M198 0l-105 104v186l97 68l-87 71v184l100 104h165l101 -104v-125l-73 -79l44 -67l23 42h141l-91 -160l142 -224h-173l-51 83l-47 -83h-186zM253 582v-152h66v152h-66zM325 135l37 66l-64 108h-45v-174h72z" />
    <glyph glyph-name="quotesingle" unicode="'" horiz-adv-x="260" 
d="M96 446l-25 271h119l-25 -271h-69z" />
    <glyph glyph-name="parenleft" unicode="(" horiz-adv-x="340" 
d="M290 660h-125v-603h125v-83h-108l-131 122v525l131 122h108v-83z" />
    <glyph glyph-name="parenright" unicode=")" horiz-adv-x="340" 
d="M159 743l130 -122v-525l-130 -122h-108v83h124v603h-124v83h108z" />
    <glyph glyph-name="asterisk" unicode="*" 
d="M415 560h-109l77 -77l-38 -38l-78 76v-109h-54v109l-78 -76l-38 38l77 77h-109v56h109l-77 77l38 38l78 -76v109h54v-109l78 76l38 -38l-77 -77h109v-56z" />
    <glyph glyph-name="plus" unicode="+" horiz-adv-x="600" 
d="M242 607h116v-191h194v-116h-194v-198h-116v198h-194v116h194v191z" />
    <glyph glyph-name="comma" unicode="," horiz-adv-x="240" 
d="M202 28l-89 -137l-56 37l52 72h-72v138h165v-110z" />
    <glyph glyph-name="hyphen" unicode="-" horiz-adv-x="180" 
d="M179 319h-178v95h178v-95z" />
    <glyph glyph-name="period" unicode="." horiz-adv-x="240" 
d="M202 0h-165v138h165v-138z" />
    <glyph glyph-name="slash" unicode="/" horiz-adv-x="600" 
d="M536 663l-372 -663l-100 54l372 663z" />
    <glyph glyph-name="zero" unicode="0" horiz-adv-x="460" 
d="M430 104l-104 -104h-187l-109 104v509l109 104h179l112 -104v-509zM195 582v-447h70v447h-70z" />
    <glyph glyph-name="one" unicode="1" horiz-adv-x="460" 
d="M316 0h-165v579h-67v99l136 39h96v-717z" />
    <glyph glyph-name="two" unicode="2" horiz-adv-x="460" 
d="M194 486h-160v127l109 104h176l108 -104v-196l-233 -217v-65h233v-135h-393v249l233 223v110h-73v-96z" />
    <glyph glyph-name="three" unicode="3" horiz-adv-x="460" 
d="M418 442l-95 -79l95 -76v-183l-109 -104h-178l-104 104v128h160v-97h66v160h-88v135h88v152h-66v-91h-160v122l104 104h171l116 -104v-171z" />
    <glyph glyph-name="four" unicode="4" horiz-adv-x="460" 
d="M394 267h64v-124h-64v-143h-160v143h-190l-48 131l244 443h154v-450zM234 491h-2l-111 -224h113v224z" />
    <glyph glyph-name="five" unicode="5" horiz-adv-x="460" 
d="M141 0l-107 104v138h165v-107h64v173l-109 3l-115 103v303h344v-135h-184v-132l124 -4l105 -98v-244l-105 -104h-182z" />
    <glyph glyph-name="six" unicode="6" horiz-adv-x="460" 
d="M427 104l-106 -104h-180l-107 104v509l107 104h177l109 -104v-126h-160v95h-73v-156h131l102 -94v-228zM194 291v-156h73v156h-73z" />
    <glyph glyph-name="seven" unicode="7" horiz-adv-x="460" 
d="M420 582l-201 -582h-172l222 582h-84v-68h-143v203h378v-135z" />
    <glyph glyph-name="eight" unicode="8" horiz-adv-x="460" 
d="M337 368l91 -73v-191l-106 -104h-180l-110 104v191l87 73l-74 72v173l100 104h158l112 -104v-173zM195 582v-152h70v152h-70zM195 295v-160h70v160h-70z" />
    <glyph glyph-name="nine" unicode="9" horiz-adv-x="460" 
d="M424 104l-108 -104h-180l-107 104v126h160v-95h70v150h-131l-99 92v236l104 104h183l108 -104v-509zM189 582v-162h70v162h-70z" />
    <glyph glyph-name="colon" unicode=":" horiz-adv-x="240" 
d="M202 364h-165v138h165v-138zM202 0h-165v138h165v-138z" />
    <glyph glyph-name="semicolon" unicode=";" horiz-adv-x="240" 
d="M202 28l-89 -137l-56 37l52 72h-72v138h165v-110zM202 364h-165v138h165v-138z" />
    <glyph glyph-name="less" unicode="&#x3c;" horiz-adv-x="600" 
d="M555 85l-509 225v99l509 227v-111l-362 -167l362 -162v-111z" />
    <glyph glyph-name="equal" unicode="=" horiz-adv-x="600" 
d="M552 398h-504v116h504v-116zM552 203h-504v116h504v-116z" />
    <glyph glyph-name="greater" unicode="&#x3e;" horiz-adv-x="600" 
d="M408 358l-362 167v111l509 -227v-99l-509 -225v111z" />
    <glyph glyph-name="question" unicode="?" horiz-adv-x="500" 
d="M441 433l-108 -103v-128h-165v146l110 104v130h-59v-131h-159v162l108 104h160l113 -104v-180zM333 0h-165v138h165v-138z" />
    <glyph glyph-name="at" unicode="@" horiz-adv-x="740" 
d="M664 149q-50 -71 -119 -110t-154 -39q-74 0 -138.5 27t-112.5 74.5t-76 113t-28 143.5q0 76 27 142t74.5 114t111 75.5t137.5 27.5q60 0 114.5 -19t100.5 -61q47 -40 74.5 -93t27.5 -118q0 -56 -16.5 -104.5t-54.5 -89.5q-13 -14 -32 -28.5t-40.5 -26t-44 -19t-41.5 -7.5
q-23 0 -39 12t-14 35l-2 2q-17 -20 -41 -32.5t-51 -12.5q-35 0 -63 13t-47 36t-29 53.5t-10 65.5q0 42 13 81t37.5 69t59 48.5t77.5 18.5q35 0 63.5 -13t48.5 -43l9 49h87l-45 -276q-1 -5 -2 -11t-1 -10q0 -6 4.5 -10t9.5 -4q17 0 35 14.5t28 28.5q18 26 27.5 62t9.5 68
q0 60 -19 107t-53 79.5t-81 49.5t-103 17q-61 0 -112.5 -21.5t-88.5 -60.5t-57.5 -92t-20.5 -116q0 -66 22.5 -119.5t62.5 -91t93.5 -58t115.5 -20.5q53 0 98 22t83 58h85zM288 337q0 -32 17.5 -57t52.5 -25q21 0 38 8.5t29.5 23t19 33.5t6.5 40q0 35 -20 58t-54 23
q-20 0 -36 -9t-28 -24t-18.5 -33.5t-6.5 -37.5z" />
    <glyph glyph-name="A" unicode="A" horiz-adv-x="420" 
d="M434 0h-162l-14 132h-96l-14 -132h-161l101 717h239zM215 565h-16l-25 -298h72z" />
    <glyph glyph-name="B" unicode="B" 
d="M347 367l92 -71v-192l-109 -104h-289v717h289l94 -90v-189zM206 582v-152h68v152h-68zM206 295v-160h68v160h-68z" />
    <glyph glyph-name="C" unicode="C" horiz-adv-x="460" 
d="M432 442h-161v140h-71v-447h71v171h161v-202l-109 -104h-170l-118 104v509l108 104h180l109 -104v-171z" />
    <glyph glyph-name="D" unicode="D" 
d="M443 104l-107 -104h-292v717h286l113 -104v-509zM209 582v-447h69v447h-69z" />
    <glyph glyph-name="E" unicode="E" horiz-adv-x="360" 
d="M343 582h-139v-135h117v-135h-117v-177h143v-135h-308v717h304v-135z" />
    <glyph glyph-name="F" unicode="F" horiz-adv-x="360" 
d="M358 582h-155v-135h126v-135h-126v-312h-165v717h320v-135z" />
    <glyph glyph-name="G" unicode="G" horiz-adv-x="460" 
d="M433 448h-165v134h-76v-447h76v104h-41v135h206v-270l-109 -104h-182l-115 104v509l110 104h184l112 -104v-165z" />
    <glyph glyph-name="H" unicode="H" 
d="M440 0h-165v291h-69v-291h-165v717h165v-291h69v291h165v-717z" />
    <glyph glyph-name="I" unicode="I" horiz-adv-x="260" 
d="M212 0h-165v717h165v-717z" />
    <glyph glyph-name="J" unicode="J" horiz-adv-x="400" 
d="M368 104l-110 -104h-151l-111 104v181h151v-150h56v582h165v-613z" />
    <glyph glyph-name="K" unicode="K" horiz-adv-x="500" 
d="M207 411h2l108 306h169l-143 -335l165 -382h-179l-120 306h-2v-306h-165v717h165v-306z" />
    <glyph glyph-name="L" unicode="L" horiz-adv-x="360" 
d="M208 135h149v-135h-314v717h165v-582z" />
    <glyph glyph-name="M" unicode="M" horiz-adv-x="600" 
d="M558 0h-151v455h-7l-69 -455h-61l-69 455h-7v-455h-151v717h194l58 -347h15l54 347h194v-717z" />
    <glyph glyph-name="N" unicode="N" 
d="M441 0h-137l-107 349h-2v-349h-155v717h138l106 -345h2v345h155v-717z" />
    <glyph glyph-name="O" unicode="O" 
d="M440 104l-106 -104h-184l-109 104v509l109 104h177l113 -104v-509zM206 582v-447h69v447h-69z" />
    <glyph glyph-name="P" unicode="P" horiz-adv-x="440" 
d="M432 345l-111 -101h-108v-244h-165v717h273l111 -104v-268zM213 582v-203h61v203h-61z" />
    <glyph glyph-name="Q" unicode="Q" 
d="M442 150l-80 -72h80v-78h-296l-109 104v509l109 104h185l111 -104v-463zM202 582v-447h75v447h-75z" />
    <glyph glyph-name="R" unicode="R" 
d="M439 425l-83 -69l83 -70v-286h-160v286h-69v-286h-165v717h283l111 -104v-188zM210 582v-161h69v161h-69z" />
    <glyph glyph-name="S" unicode="S" horiz-adv-x="460" 
d="M314 717l116 -104v-127h-165v96h-68v-146l120 -10l113 -104v-218l-108 -104h-183l-107 104v126h165v-95h68v150l-118 9l-115 104v215l108 104h174z" />
    <glyph glyph-name="T" unicode="T" horiz-adv-x="360" 
d="M355 582h-93v-582h-165v582h-93v135h351v-135z" />
    <glyph glyph-name="U" unicode="U" 
d="M441 104l-107 -104h-185l-110 104v613h165v-582h72v582h165v-613z" />
    <glyph glyph-name="V" unicode="V" horiz-adv-x="420" 
d="M340 0h-250l-94 717h165l46 -546h11l41 546h165z" />
    <glyph glyph-name="W" unicode="W" horiz-adv-x="540" 
d="M432 0h-119l-35 307h-16l-35 -307h-119l-122 717h156l51 -361h2l41 361h68l41 -361h2l51 361h156z" />
    <glyph glyph-name="X" unicode="X" horiz-adv-x="440" 
d="M317 374l135 -374h-167l-66 209h-2l-60 -209h-167l135 374l-131 343h169l54 -202h2l54 202h169z" />
    <glyph glyph-name="Y" unicode="Y" horiz-adv-x="440" 
d="M302 300v-300h-165v300l-142 417h165l59 -259h2l59 259h165z" />
    <glyph glyph-name="Z" unicode="Z" horiz-adv-x="400" 
d="M179 135h194v-135h-294l-93 125l236 457h-174v135h267l100 -127z" />
    <glyph glyph-name="bracketleft" unicode="[" horiz-adv-x="340" 
d="M288 665h-123v-613h123v-77h-237v767h237v-77z" />
    <glyph glyph-name="backslash" unicode="\" horiz-adv-x="600" 
d="M164 717l372 -663l-100 -54l-372 663z" />
    <glyph glyph-name="bracketright" unicode="]" horiz-adv-x="340" 
d="M288 742v-767h-236v77h122v613h-122v77h236z" />
    <glyph glyph-name="asciicircum" unicode="^" horiz-adv-x="600" 
d="M60 334l180 383h120l180 -383l-104 -47l-136 285l-136 -285z" />
    <glyph glyph-name="underscore" unicode="_" horiz-adv-x="1020" 
d="M0 -125v50h1020v-50h-1020z" />
    <glyph glyph-name="grave" unicode="`" horiz-adv-x="380" 
d="M245 790l-34 -50l-179 80l-20 45l40 64l49 -4z" />
    <glyph glyph-name="a" unicode="a" horiz-adv-x="420" 
d="M434 0h-162l-14 132h-96l-14 -132h-161l101 717h239zM215 565h-16l-25 -298h72z" />
    <glyph glyph-name="b" unicode="b" 
d="M347 367l92 -71v-192l-109 -104h-289v717h289l94 -90v-189zM206 582v-152h68v152h-68zM206 295v-160h68v160h-68z" />
    <glyph glyph-name="c" unicode="c" horiz-adv-x="460" 
d="M432 442h-161v140h-71v-447h71v171h161v-202l-109 -104h-170l-118 104v509l108 104h180l109 -104v-171z" />
    <glyph glyph-name="d" unicode="d" 
d="M443 104l-107 -104h-292v717h286l113 -104v-509zM209 582v-447h69v447h-69z" />
    <glyph glyph-name="e" unicode="e" horiz-adv-x="360" 
d="M343 582h-139v-135h117v-135h-117v-177h143v-135h-308v717h304v-135z" />
    <glyph glyph-name="f" unicode="f" horiz-adv-x="360" 
d="M358 582h-155v-135h126v-135h-126v-312h-165v717h320v-135z" />
    <glyph glyph-name="g" unicode="g" horiz-adv-x="460" 
d="M433 448h-165v134h-76v-447h76v104h-41v135h206v-270l-109 -104h-182l-115 104v509l110 104h184l112 -104v-165z" />
    <glyph glyph-name="h" unicode="h" 
d="M440 0h-165v291h-69v-291h-165v717h165v-291h69v291h165v-717z" />
    <glyph glyph-name="i" unicode="i" horiz-adv-x="260" 
d="M212 0h-165v717h165v-717z" />
    <glyph glyph-name="j" unicode="j" horiz-adv-x="400" 
d="M368 104l-110 -104h-151l-111 104v181h151v-150h56v582h165v-613z" />
    <glyph glyph-name="k" unicode="k" horiz-adv-x="500" 
d="M207 411h2l108 306h169l-143 -335l165 -382h-179l-120 306h-2v-306h-165v717h165v-306z" />
    <glyph glyph-name="l" unicode="l" horiz-adv-x="360" 
d="M208 135h149v-135h-314v717h165v-582z" />
    <glyph glyph-name="m" unicode="m" horiz-adv-x="600" 
d="M558 0h-151v455h-7l-69 -455h-61l-69 455h-7v-455h-151v717h194l58 -347h15l54 347h194v-717z" />
    <glyph glyph-name="n" unicode="n" 
d="M441 0h-137l-107 349h-2v-349h-155v717h138l106 -345h2v345h155v-717z" />
    <glyph glyph-name="o" unicode="o" 
d="M440 104l-106 -104h-184l-109 104v509l109 104h177l113 -104v-509zM206 582v-447h69v447h-69z" />
    <glyph glyph-name="p" unicode="p" horiz-adv-x="440" 
d="M432 345l-111 -101h-108v-244h-165v717h273l111 -104v-268zM213 582v-203h61v203h-61z" />
    <glyph glyph-name="q" unicode="q" 
d="M442 150l-80 -72h80v-78h-296l-109 104v509l109 104h185l111 -104v-463zM202 582v-447h75v447h-75z" />
    <glyph glyph-name="r" unicode="r" 
d="M439 425l-83 -69l83 -70v-286h-160v286h-69v-286h-165v717h283l111 -104v-188zM210 582v-161h69v161h-69z" />
    <glyph glyph-name="s" unicode="s" horiz-adv-x="460" 
d="M314 717l116 -104v-127h-165v96h-68v-146l120 -10l113 -104v-218l-108 -104h-183l-107 104v126h165v-95h68v150l-118 9l-115 104v215l108 104h174z" />
    <glyph glyph-name="t" unicode="t" horiz-adv-x="360" 
d="M355 582h-93v-582h-165v582h-93v135h351v-135z" />
    <glyph glyph-name="u" unicode="u" 
d="M441 104l-107 -104h-185l-110 104v613h165v-582h72v582h165v-613z" />
    <glyph glyph-name="v" unicode="v" horiz-adv-x="420" 
d="M340 0h-250l-94 717h165l46 -546h11l41 546h165z" />
    <glyph glyph-name="w" unicode="w" horiz-adv-x="540" 
d="M432 0h-119l-35 307h-16l-35 -307h-119l-122 717h156l51 -361h2l41 361h68l41 -361h2l51 361h156z" />
    <glyph glyph-name="x" unicode="x" horiz-adv-x="440" 
d="M317 374l135 -374h-167l-66 209h-2l-60 -209h-167l135 374l-131 343h169l54 -202h2l54 202h169z" />
    <glyph glyph-name="y" unicode="y" horiz-adv-x="440" 
d="M302 300v-300h-165v300l-142 417h165l59 -259h2l59 259h165z" />
    <glyph glyph-name="z" unicode="z" horiz-adv-x="400" 
d="M179 135h194v-135h-294l-93 125l236 457h-174v135h267l100 -127z" />
    <glyph glyph-name="braceleft" unicode="{" horiz-adv-x="340" 
d="M330 -25h-108l-131 122v192l-36 34h-44v70h44l36 34v193l131 122h108v-83h-125v-241l-63 -60l63 -60v-240h125v-83z" />
    <glyph glyph-name="bar" unicode="|" horiz-adv-x="600" 
d="M241 717h119v-717h-119v717z" />
    <glyph glyph-name="braceright" unicode="}" horiz-adv-x="340" 
d="M10 58h125v240l63 60l-63 60v241h-125v83h108l131 -122v-193l36 -34h44v-70h-44l-36 -34v-192l-131 -122h-108v83z" />
    <glyph glyph-name="asciitilde" unicode="~" horiz-adv-x="600" 
d="M552 388q-13 -20 -26.5 -41t-30.5 -38t-38 -27.5t-49 -10.5q-25 0 -47 7.5t-45 16.5l-40 17q-17 7 -37.5 16t-39.5 9q-18 0 -31 -8t-23 -20t-18 -26.5t-15 -27.5l-64 74q12 21 26.5 43t32.5 40t40.5 29.5t49.5 11.5t57 -10.5t58 -22.5l52.5 -22.5t42.5 -10.5
q16 0 27.5 7.5t21 18.5t17 24t15.5 24z" />
    <glyph glyph-name="uni00A0" unicode="&#xa0;" horiz-adv-x="280" 
 />
    <glyph glyph-name="exclamdown" unicode="&#xa1;" horiz-adv-x="360" 
d="M98 -303v218l48 296h68l49 -296v-218h-165zM263 276h-165v138h165v-138z" />
    <glyph glyph-name="cent" unicode="&#xa2;" horiz-adv-x="460" 
d="M434 412h-156v96h-97v-296h97v110h156v-141l-106 -104h-57v-77h-79v77h-53l-114 104v357l104 105h63v74h79v-74h57l106 -105v-126z" />
    <glyph glyph-name="sterling" unicode="&#xa3;" horiz-adv-x="540" 
d="M384 717l103 -104v-151h-159v120h-78v-163h69v-86h-69v-198h96v165h158v-196l-111 -104h-357v135h53v198h-53v86h53v194l105 104h190z" />
    <glyph glyph-name="currency" unicode="&#xa4;" horiz-adv-x="600" 
d="M91 230q-18 32 -27.5 61t-9.5 67q0 37 9 68.5t28 62.5l-44 43l79 80l44 -44q29 17 62.5 27.5t66.5 10.5q73 0 134 -38l44 44l77 -80l-44 -43q19 -30 28.5 -62t9.5 -68q0 -34 -9 -67.5t-29 -61.5l44 -44l-77 -79l-44 44q-30 -18 -62 -28.5t-67 -10.5q-74 0 -134 39
l-44 -44l-79 79zM301 236q26 0 48.5 10t39 27t26 39.5t9.5 46.5t-9.5 46.5t-26 39.5t-39 27t-48.5 10t-48.5 -10t-39 -27t-26 -39.5t-9.5 -46.5t9.5 -46.5t26 -39.5t39 -27t48.5 -10z" />
    <glyph glyph-name="yen" unicode="&#xa5;" horiz-adv-x="520" 
d="M408 484h78v-85h-105l-30 -85h135v-85h-140v-229h-165v229h-140v85h135l-34 85h-101v85h72l-80 233h164l63 -260h2l59 260h165z" />
    <glyph glyph-name="brokenbar" unicode="&#xa6;" horiz-adv-x="600" 
d="M241 717h119v-287h-119v287zM241 287h119v-287h-119v287z" />
    <glyph glyph-name="section" unicode="&#xa7;" horiz-adv-x="500" 
d="M333 593q-17 18 -33.5 31.5t-45.5 13.5q-37 0 -37 -34q0 -14 18 -33t44.5 -41.5t57.5 -48t57.5 -52t44.5 -53.5t18 -52q0 -18 -7.5 -35.5t-21 -32t-32 -25.5t-39.5 -15q20 -21 32 -46t12 -53q0 -49 -40.5 -83t-112.5 -34q-46 0 -90.5 20.5t-82.5 58.5l88 54
q14 -21 32 -37.5t48 -16.5q44 0 44 40q0 16 -18 37t-45 45t-59 50t-59 54t-45 56t-18 56q0 45 30 70.5t78 30.5q-22 21 -35 40t-13 42q0 51 39 84t108 33q51 0 89 -19t72 -51zM153 427q0 -12 20.5 -36t47 -48.5t50.5 -43t32 -18.5q19 0 30 7.5t11 22.5q0 8 -9.5 21.5
t-24.5 30t-33.5 33t-35 30.5t-29.5 22.5t-18 8.5q-19 0 -30 -7.5t-11 -22.5z" />
    <glyph glyph-name="dieresis" unicode="&#xa8;" horiz-adv-x="440" 
d="M374 771h-130v127h130v-127zM202 771h-130v127h130v-127z" />
    <glyph glyph-name="copyright" unicode="&#xa9;" horiz-adv-x="740" 
d="M371 0q-72 0 -135 28t-110.5 77t-74.5 114t-27 140q0 74 27 139.5t74.5 114t110.5 76.5t135 28t135 -28t110 -76.5t74 -114t27 -139.5q0 -75 -27 -140t-74 -114t-110 -77t-135 -28zM371 67q58 0 109 23t89 62.5t60.5 93t22.5 113.5t-22.5 113t-60.5 92.5t-89 62.5
t-109 23q-59 0 -110 -23t-89.5 -62.5t-60.5 -92.5t-22 -113t22 -113.5t60.5 -93t89.5 -62.5t110 -23zM547 294q-3 -32 -17.5 -58t-36.5 -44t-49.5 -27.5t-57.5 -9.5q-44 0 -79 16t-60.5 43.5t-39 65.5t-13.5 82t13 82t37.5 65.5t60 43t79.5 15.5q63 0 107.5 -35.5
t55.5 -100.5h-78q-6 34 -30 52.5t-56 18.5q-28 0 -49 -11.5t-34.5 -31t-20.5 -44.5t-7 -52q0 -26 7.5 -51.5t22 -46t36 -33.5t48.5 -13q31 0 56 20.5t27 53.5h78z" />
    <glyph glyph-name="ordfeminine" unicode="&#xaa;" horiz-adv-x="361" 
d="M326 287h-105l-9 79h-63l-9 -79h-105l66 430h155zM184 626h-11l-16 -179h47z" />
    <glyph glyph-name="guillemotleft" unicode="&#xab;" horiz-adv-x="420" 
d="M201 558l-51 -192l51 -192l-51 -29l-93 144v156l93 143zM364 558l-51 -192l51 -192l-51 -29l-93 144v156l93 143z" />
    <glyph glyph-name="logicalnot" unicode="&#xac;" horiz-adv-x="600" 
d="M443 398h-402v116h518v-304h-116v188z" />
    <glyph glyph-name="uni00AD" unicode="&#xad;" horiz-adv-x="180" 
d="M179 319h-178v95h178v-95z" />
    <glyph glyph-name="registered" unicode="&#xae;" horiz-adv-x="740" 
d="M371 0q-72 0 -135 28t-110.5 77t-74.5 114t-27 140q0 74 27 139.5t74.5 114t110.5 76.5t135 28t135 -28t110 -76.5t74 -114t27 -139.5q0 -75 -27 -140t-74 -114t-110 -77t-135 -28zM371 67q58 0 109 23t89.5 62.5t60.5 93t22 113.5t-22 113t-60.5 92.5t-89.5 62.5
t-109 23q-59 0 -110 -23t-89.5 -62.5t-60.5 -92.5t-22 -113t22 -113.5t60.5 -93t89.5 -62.5t110 -23zM543 163h-85l-83 164h-74v-164h-73v387h181q24 0 52 -2.5t49 -15.5q26 -17 35 -43.5t9 -57.5q0 -53 -26 -76.5t-76 -27.5zM411 385q31 -1 50.5 10t19.5 48q0 19 -9 30
t-22 15.5t-29 5.5t-29 1h-91v-110h110z" />
    <glyph glyph-name="macron" unicode="&#xaf;" 
d="M400 795h-328v78h328v-78z" />
    <glyph glyph-name="degree" unicode="&#xb0;" horiz-adv-x="400" 
d="M309 551l-55 -54h-109l-54 54v112l54 54h109l55 -54v-112zM151 657v-100h98v100h-98z" />
    <glyph glyph-name="plusminus" unicode="&#xb1;" horiz-adv-x="600" 
d="M242 717h116v-191h194v-116h-194v-198h-116v198h-194v116h194v191zM48 116h504v-116h-504v116z" />
    <glyph glyph-name="uni00B2" unicode="&#xb2;" horiz-adv-x="324" 
d="M138 578h-101v77l68 62h114l71 -62v-118l-152 -130v-39h152v-81h-256v149l151 134v66h-47v-58z" />
    <glyph glyph-name="uni00B3" unicode="&#xb3;" horiz-adv-x="324" 
d="M289 552l-61 -47l61 -46v-110l-70 -62h-116l-68 62v77h102v-58h45v96h-57v81h57v91h-45v-55h-102v74l68 62h111l75 -62v-103z" />
    <glyph glyph-name="acute" unicode="&#xb4;" horiz-adv-x="380" 
d="M324 929l41 -64l-21 -45l-179 -80l-33 50l143 135z" />
    <glyph glyph-name="mu" unicode="&#xb5;" horiz-adv-x="495" 
d="M436 135h57v-135h-71l-69 69l-69 -69h-78v-103h-165v565h165v-327h65v327h165v-327z" />
    <glyph glyph-name="paragraph" unicode="&#xb6;" horiz-adv-x="600" 
d="M244 368h-63l-109 101v147l109 101h327v-717h-114v627h-36v-627h-114v368z" />
    <glyph glyph-name="periodcentered" unicode="&#xb7;" horiz-adv-x="460" 
d="M313 289h-165v138h165v-138z" />
    <glyph glyph-name="cedilla" unicode="&#xb8;" horiz-adv-x="280" 
d="M150 -28h23l32 -32v-109l-39 -39h-94v57h67v67h-19l-32 31v53h62v-28z" />
    <glyph glyph-name="uni00B9" unicode="&#xb9;" horiz-adv-x="324" 
d="M247 287h-123v342h-48v63l93 25h78v-430z" />
    <glyph glyph-name="ordmasculine" unicode="&#xba;" horiz-adv-x="319" 
d="M289 349l-68 -62h-120l-71 62v306l71 62h115l73 -62v-306zM137 636v-268h45v268h-45z" />
    <glyph glyph-name="guillemotright" unicode="&#xbb;" horiz-adv-x="420" 
d="M363 445v-156l-93 -144l-51 29l51 192l-51 192l51 30zM200 445v-156l-93 -144l-51 29l51 192l-51 192l51 30z" />
    <glyph glyph-name="onequarter" unicode="&#xbc;" horiz-adv-x="921" 
d="M793 160h44v-74h-44v-86h-101v86h-124l-31 78l159 266h97v-270zM343 0h-123l317 717h123zM692 295h-2l-72 -135h74v135zM255 287h-123v342h-48v63l93 25h78v-430z" />
    <glyph glyph-name="onehalf" unicode="&#xbd;" horiz-adv-x="921" 
d="M686 292h-101v76l67 62h115l70 -62v-118l-151 -130v-39h151v-81h-255v149l150 134v66h-46v-57zM255 287h-123v342h-48v63l93 25h78v-430zM333 0h-123l317 717h123z" />
    <glyph glyph-name="threequarters" unicode="&#xbe;" horiz-adv-x="921" 
d="M692 295h-2l-72 -135h74v135zM372 0h-123l317 717h123zM793 160h44v-74h-44v-86h-101v86h-124l-31 78l159 266h97v-270zM338 552l-61 -47l61 -46v-110l-70 -62h-116l-68 62v77h102v-58h45v96h-57v81h57v91h-45v-55h-102v74l68 62h111l75 -62v-103z" />
    <glyph glyph-name="questiondown" unicode="&#xbf;" horiz-adv-x="500" 
d="M60 -19l108 102v129h165v-146l-110 -105v-130h59v131h159v-161l-109 -104h-159l-113 104v180zM333 276h-165v138h165v-138z" />
    <glyph glyph-name="Agrave" unicode="&#xc0;" horiz-adv-x="420" 
d="M434 0h-162l-14 132h-96l-14 -132h-161l101 717h239zM215 565h-16l-25 -298h72zM265 790l-34 -50l-179 80l-20 45l40 64l49 -4z" />
    <glyph glyph-name="Aacute" unicode="&#xc1;" horiz-adv-x="420" 
d="M434 0h-162l-14 132h-96l-14 -132h-161l101 717h239zM215 565h-16l-25 -298h72zM344 929l41 -64l-21 -45l-179 -80l-33 50l143 135z" />
    <glyph glyph-name="Acircumflex" unicode="&#xc2;" horiz-adv-x="420" 
d="M434 0h-162l-14 132h-96l-14 -132h-161l101 717h239zM215 565h-16l-25 -298h72zM215 813l-156 -50l-27 50l108 92h149l109 -92l-28 -50z" />
    <glyph glyph-name="Atilde" unicode="&#xc3;" horiz-adv-x="420" 
d="M434 0h-162l-14 132h-96l-14 -132h-161l101 717h239zM215 565h-16l-25 -298h72zM229 763l-72 55l-71 -50l-44 40l136 97l74 -55l72 52l46 -41z" />
    <glyph glyph-name="Adieresis" unicode="&#xc4;" horiz-adv-x="420" 
d="M434 0h-162l-14 132h-96l-14 -132h-161l101 717h239zM215 565h-16l-25 -298h72zM364 771h-130v127h130v-127zM192 771h-130v127h130v-127z" />
    <glyph glyph-name="Aring" unicode="&#xc5;" horiz-adv-x="420" 
d="M434 0h-162l-14 132h-96l-14 -132h-161l101 717h239zM215 565h-16l-25 -298h72zM303 787l-46 -45h-90l-45 45v92l45 45h90l46 -45v-92zM173 873v-80h79v80h-79z" />
    <glyph glyph-name="AE" unicode="&#xc6;" horiz-adv-x="600" 
d="M579 582h-141v-137h120v-135h-120v-175h149v-135h-305v135h-118l-32 -135h-161l206 717h402v-135zM282 582h-15l-73 -315h88v315z" />
    <glyph glyph-name="Ccedilla" unicode="&#xc7;" horiz-adv-x="460" 
d="M323 0h-57v-24h23l32 -32v-109l-39 -39h-94v57h67v67h-19l-32 31v49h-51l-118 104v509l108 104h180l109 -104v-171h-161v140h-71v-447h71v171h161v-202z" />
    <glyph glyph-name="Egrave" unicode="&#xc8;" horiz-adv-x="360" 
d="M343 582h-139v-135h117v-135h-117v-177h143v-135h-308v717h304v-135zM235 790l-34 -50l-179 80l-20 45l40 64l49 -4z" />
    <glyph glyph-name="Eacute" unicode="&#xc9;" horiz-adv-x="360" 
d="M343 582h-139v-135h117v-135h-117v-177h143v-135h-308v717h304v-135zM314 929l41 -64l-21 -45l-179 -80l-33 50l143 135z" />
    <glyph glyph-name="Ecircumflex" unicode="&#xca;" horiz-adv-x="360" 
d="M343 582h-139v-135h117v-135h-117v-177h143v-135h-308v717h304v-135zM185 813l-156 -50l-27 50l108 92h149l109 -92l-28 -50z" />
    <glyph glyph-name="Edieresis" unicode="&#xcb;" horiz-adv-x="360" 
d="M343 582h-139v-135h117v-135h-117v-177h143v-135h-308v717h304v-135zM334 771h-130v127h130v-127zM162 771h-130v127h130v-127z" />
    <glyph glyph-name="Igrave" unicode="&#xcc;" horiz-adv-x="260" 
d="M212 0h-165v717h165v-717zM185 790l-34 -50l-179 80l-20 45l40 64l49 -4z" />
    <glyph glyph-name="Iacute" unicode="&#xcd;" horiz-adv-x="260" 
d="M212 0h-165v717h165v-717zM264 929l41 -64l-21 -45l-179 -80l-33 50l143 135z" />
    <glyph glyph-name="Icircumflex" unicode="&#xce;" horiz-adv-x="260" 
d="M212 0h-165v717h165v-717zM135 813l-156 -50l-27 50l108 92h149l109 -92l-28 -50z" />
    <glyph glyph-name="Idieresis" unicode="&#xcf;" horiz-adv-x="260" 
d="M212 0h-165v717h165v-717zM284 771h-130v127h130v-127zM112 771h-130v127h130v-127z" />
    <glyph glyph-name="Eth" unicode="&#xd0;" 
d="M44 717h286l113 -104v-509l-107 -104h-292v291h-44v135h44v291zM209 426h31v-135h-31v-156h69v447h-69v-156z" />
    <glyph glyph-name="Ntilde" unicode="&#xd1;" 
d="M441 0h-137l-107 349h-2v-349h-155v717h138l106 -345h2v345h155v-717zM259 763l-72 55l-71 -50l-44 40l136 97l74 -55l72 52l46 -41z" />
    <glyph glyph-name="Ograve" unicode="&#xd2;" 
d="M440 104l-106 -104h-184l-109 104v509l109 104h177l113 -104v-509zM206 582v-447h69v447h-69zM295 790l-34 -50l-179 80l-20 45l40 64l49 -4z" />
    <glyph glyph-name="Oacute" unicode="&#xd3;" 
d="M440 104l-106 -104h-184l-109 104v509l109 104h177l113 -104v-509zM206 582v-447h69v447h-69zM374 929l41 -64l-21 -45l-179 -80l-33 50l143 135z" />
    <glyph glyph-name="Ocircumflex" unicode="&#xd4;" 
d="M440 104l-106 -104h-184l-109 104v509l109 104h177l113 -104v-509zM206 582v-447h69v447h-69zM245 813l-156 -50l-27 50l108 92h149l109 -92l-28 -50z" />
    <glyph glyph-name="Otilde" unicode="&#xd5;" 
d="M440 104l-106 -104h-184l-109 104v509l109 104h177l113 -104v-509zM206 582v-447h69v447h-69zM259 763l-72 55l-71 -50l-44 40l136 97l74 -55l72 52l46 -41z" />
    <glyph glyph-name="Odieresis" unicode="&#xd6;" 
d="M440 104l-106 -104h-184l-109 104v509l109 104h177l113 -104v-509zM206 582v-447h69v447h-69zM394 771h-130v127h130v-127zM222 771h-130v127h130v-127z" />
    <glyph glyph-name="multiply" unicode="&#xd7;" horiz-adv-x="600" 
d="M80 459l85 82l135 -135l137 137l83 -82l-138 -137l138 -140l-80 -82l-140 140l-137 -137l-83 82l138 137z" />
    <glyph glyph-name="Oslash" unicode="&#xd8;" horiz-adv-x="500" 
d="M458 104l-108 -104h-185l-50 47l-69 -134l-40 21l75 146l-24 24v509l108 104h185l38 -39l62 120l41 -21l-68 -132l35 -32v-509zM222 346h2l69 154v82h-71v-236zM293 400h-2l-69 -153v-112h71v265z" />
    <glyph glyph-name="Ugrave" unicode="&#xd9;" 
d="M441 104l-107 -104h-185l-110 104v613h165v-582h72v582h165v-613zM295 790l-34 -50l-179 80l-20 45l40 64l49 -4z" />
    <glyph glyph-name="Uacute" unicode="&#xda;" 
d="M441 104l-107 -104h-185l-110 104v613h165v-582h72v582h165v-613zM374 929l41 -64l-21 -45l-179 -80l-33 50l143 135z" />
    <glyph glyph-name="Ucircumflex" unicode="&#xdb;" 
d="M441 104l-107 -104h-185l-110 104v613h165v-582h72v582h165v-613zM245 813l-156 -50l-27 50l108 92h149l109 -92l-28 -50z" />
    <glyph glyph-name="Udieresis" unicode="&#xdc;" 
d="M441 104l-107 -104h-185l-110 104v613h165v-582h72v582h165v-613zM394 771h-130v127h130v-127zM222 771h-130v127h130v-127z" />
    <glyph glyph-name="Yacute" unicode="&#xdd;" horiz-adv-x="440" 
d="M302 300v-300h-165v300l-142 417h165l59 -259h2l59 259h165zM354 929l41 -64l-21 -45l-179 -80l-33 50l143 135z" />
    <glyph glyph-name="Thorn" unicode="&#xde;" horiz-adv-x="440" 
d="M48 717h165v-110h108l111 -104v-268l-111 -101h-108v-134h-165v717zM213 472v-203h61v203h-61z" />
    <glyph glyph-name="germandbls" unicode="&#xdf;" horiz-adv-x="920" 
d="M314 717l116 -104v-127h-165v96h-68v-146l120 -10l113 -104v-218l-108 -104h-183l-107 104v126h165v-95h68v150l-118 9l-115 104v215l108 104h174zM774 717l116 -104v-127h-165v96h-68v-146l120 -10l113 -104v-218l-108 -104h-183l-107 104v126h165v-95h68v150l-118 9
l-115 104v215l108 104h174z" />
    <glyph glyph-name="agrave" unicode="&#xe0;" horiz-adv-x="420" 
d="M434 0h-162l-14 132h-96l-14 -132h-161l101 717h239zM215 565h-16l-25 -298h72zM265 790l-34 -50l-179 80l-20 45l40 64l49 -4z" />
    <glyph glyph-name="aacute" unicode="&#xe1;" horiz-adv-x="420" 
d="M434 0h-162l-14 132h-96l-14 -132h-161l101 717h239zM215 565h-16l-25 -298h72zM344 929l41 -64l-21 -45l-179 -80l-33 50l143 135z" />
    <glyph glyph-name="acircumflex" unicode="&#xe2;" horiz-adv-x="420" 
d="M434 0h-162l-14 132h-96l-14 -132h-161l101 717h239zM215 565h-16l-25 -298h72zM215 813l-156 -50l-27 50l108 92h149l109 -92l-28 -50z" />
    <glyph glyph-name="atilde" unicode="&#xe3;" horiz-adv-x="420" 
d="M434 0h-162l-14 132h-96l-14 -132h-161l101 717h239zM215 565h-16l-25 -298h72zM229 763l-72 55l-71 -50l-44 40l136 97l74 -55l72 52l46 -41z" />
    <glyph glyph-name="adieresis" unicode="&#xe4;" horiz-adv-x="420" 
d="M434 0h-162l-14 132h-96l-14 -132h-161l101 717h239zM215 565h-16l-25 -298h72zM364 771h-130v127h130v-127zM192 771h-130v127h130v-127z" />
    <glyph glyph-name="aring" unicode="&#xe5;" horiz-adv-x="420" 
d="M434 0h-162l-14 132h-96l-14 -132h-161l101 717h239zM215 565h-16l-25 -298h72zM303 787l-46 -45h-90l-45 45v92l45 45h90l46 -45v-92zM173 873v-80h79v80h-79z" />
    <glyph glyph-name="ae" unicode="&#xe6;" horiz-adv-x="600" 
d="M579 582h-141v-137h120v-135h-120v-175h149v-135h-305v135h-118l-32 -135h-161l206 717h402v-135zM282 582h-15l-73 -315h88v315z" />
    <glyph glyph-name="ccedilla" unicode="&#xe7;" horiz-adv-x="460" 
d="M323 0h-57v-24h23l32 -32v-109l-39 -39h-94v57h67v67h-19l-32 31v49h-51l-118 104v509l108 104h180l109 -104v-171h-161v140h-71v-447h71v171h161v-202z" />
    <glyph glyph-name="egrave" unicode="&#xe8;" horiz-adv-x="360" 
d="M343 582h-139v-135h117v-135h-117v-177h143v-135h-308v717h304v-135zM235 790l-34 -50l-179 80l-20 45l40 64l49 -4z" />
    <glyph glyph-name="eacute" unicode="&#xe9;" horiz-adv-x="360" 
d="M343 582h-139v-135h117v-135h-117v-177h143v-135h-308v717h304v-135zM314 929l41 -64l-21 -45l-179 -80l-33 50l143 135z" />
    <glyph glyph-name="ecircumflex" unicode="&#xea;" horiz-adv-x="360" 
d="M343 582h-139v-135h117v-135h-117v-177h143v-135h-308v717h304v-135zM185 813l-156 -50l-27 50l108 92h149l109 -92l-28 -50z" />
    <glyph glyph-name="edieresis" unicode="&#xeb;" horiz-adv-x="360" 
d="M343 582h-139v-135h117v-135h-117v-177h143v-135h-308v717h304v-135zM334 771h-130v127h130v-127zM162 771h-130v127h130v-127z" />
    <glyph glyph-name="igrave" unicode="&#xec;" horiz-adv-x="260" 
d="M212 0h-165v717h165v-717zM185 790l-34 -50l-179 80l-20 45l40 64l49 -4z" />
    <glyph glyph-name="iacute" unicode="&#xed;" horiz-adv-x="260" 
d="M212 0h-165v717h165v-717zM264 929l41 -64l-21 -45l-179 -80l-33 50l143 135z" />
    <glyph glyph-name="icircumflex" unicode="&#xee;" horiz-adv-x="260" 
d="M212 0h-165v717h165v-717zM135 813l-156 -50l-27 50l108 92h149l109 -92l-28 -50z" />
    <glyph glyph-name="idieresis" unicode="&#xef;" horiz-adv-x="260" 
d="M212 0h-165v717h165v-717zM284 771h-130v127h130v-127zM112 771h-130v127h130v-127z" />
    <glyph glyph-name="eth" unicode="&#xf0;" 
d="M44 717h286l113 -104v-509l-107 -104h-292v291h-44v135h44v291zM209 426h31v-135h-31v-156h69v447h-69v-156z" />
    <glyph glyph-name="ntilde" unicode="&#xf1;" 
d="M441 0h-137l-107 349h-2v-349h-155v717h138l106 -345h2v345h155v-717zM259 763l-72 55l-71 -50l-44 40l136 97l74 -55l72 52l46 -41z" />
    <glyph glyph-name="ograve" unicode="&#xf2;" 
d="M440 104l-106 -104h-184l-109 104v509l109 104h177l113 -104v-509zM206 582v-447h69v447h-69zM295 790l-34 -50l-179 80l-20 45l40 64l49 -4z" />
    <glyph glyph-name="oacute" unicode="&#xf3;" 
d="M440 104l-106 -104h-184l-109 104v509l109 104h177l113 -104v-509zM206 582v-447h69v447h-69zM374 929l41 -64l-21 -45l-179 -80l-33 50l143 135z" />
    <glyph glyph-name="ocircumflex" unicode="&#xf4;" 
d="M440 104l-106 -104h-184l-109 104v509l109 104h177l113 -104v-509zM206 582v-447h69v447h-69zM245 813l-156 -50l-27 50l108 92h149l109 -92l-28 -50z" />
    <glyph glyph-name="otilde" unicode="&#xf5;" 
d="M440 104l-106 -104h-184l-109 104v509l109 104h177l113 -104v-509zM206 582v-447h69v447h-69zM259 763l-72 55l-71 -50l-44 40l136 97l74 -55l72 52l46 -41z" />
    <glyph glyph-name="odieresis" unicode="&#xf6;" 
d="M440 104l-106 -104h-184l-109 104v509l109 104h177l113 -104v-509zM206 582v-447h69v447h-69zM394 771h-130v127h130v-127zM222 771h-130v127h130v-127z" />
    <glyph glyph-name="divide" unicode="&#xf7;" horiz-adv-x="600" 
d="M48 416h504v-116h-504v116zM358 100h-116v116h116v-116zM358 500h-116v116h116v-116z" />
    <glyph glyph-name="oslash" unicode="&#xf8;" horiz-adv-x="500" 
d="M458 104l-108 -104h-185l-50 47l-69 -134l-40 21l75 146l-24 24v509l108 104h185l38 -39l62 120l41 -21l-68 -132l35 -32v-509zM222 582v-236h2l69 154v82h-71zM293 135v265h-2l-69 -153v-112h71z" />
    <glyph glyph-name="ugrave" unicode="&#xf9;" 
d="M441 104l-107 -104h-185l-110 104v613h165v-582h72v582h165v-613zM295 790l-34 -50l-179 80l-20 45l40 64l49 -4z" />
    <glyph glyph-name="uacute" unicode="&#xfa;" 
d="M441 104l-107 -104h-185l-110 104v613h165v-582h72v582h165v-613zM374 929l41 -64l-21 -45l-179 -80l-33 50l143 135z" />
    <glyph glyph-name="ucircumflex" unicode="&#xfb;" 
d="M441 104l-107 -104h-185l-110 104v613h165v-582h72v582h165v-613zM245 813l-156 -50l-27 50l108 92h149l109 -92l-28 -50z" />
    <glyph glyph-name="udieresis" unicode="&#xfc;" 
d="M441 104l-107 -104h-185l-110 104v613h165v-582h72v582h165v-613zM394 771h-130v127h130v-127zM222 771h-130v127h130v-127z" />
    <glyph glyph-name="yacute" unicode="&#xfd;" horiz-adv-x="440" 
d="M302 300v-300h-165v300l-142 417h165l59 -259h2l59 259h165zM354 929l41 -64l-21 -45l-179 -80l-33 50l143 135z" />
    <glyph glyph-name="thorn" unicode="&#xfe;" horiz-adv-x="440" 
d="M48 717h165v-110h108l111 -104v-268l-111 -101h-108v-134h-165v717zM213 472v-203h61v203h-61z" />
    <glyph glyph-name="ydieresis" unicode="&#xff;" horiz-adv-x="440" 
d="M302 300v-300h-165v300l-142 417h165l59 -259h2l59 259h165zM374 771h-130v127h130v-127zM202 771h-130v127h130v-127z" />
    <glyph glyph-name="dotlessi" unicode="&#x131;" horiz-adv-x="260" 
d="M212 0h-165v717h165v-717z" />
    <glyph glyph-name="Lslash" unicode="&#x141;" horiz-adv-x="400" 
d="M247 487l106 82v-104l-106 -84v-246h150v-135h-315v252l-70 -55v105l70 55v360h165v-230z" />
    <glyph glyph-name="lslash" unicode="&#x142;" horiz-adv-x="400" 
d="M247 487l106 82v-104l-106 -84v-246h150v-135h-315v252l-70 -55v105l70 55v360h165v-230z" />
    <glyph glyph-name="OE" unicode="&#x152;" horiz-adv-x="600" 
d="M575 582h-140v-136h122v-135h-122v-176h148v-135h-437l-108 104v509l108 104h429v-135zM203 582v-447h70v447h-70z" />
    <glyph glyph-name="oe" unicode="&#x153;" horiz-adv-x="600" 
d="M575 582h-140v-136h122v-135h-122v-176h148v-135h-437l-108 104v509l108 104h429v-135zM203 582v-447h70v447h-70z" />
    <glyph glyph-name="Scaron" unicode="&#x160;" horiz-adv-x="460" 
d="M314 717l116 -104v-127h-165v96h-68v-146l120 -10l113 -104v-218l-108 -104h-183l-107 104v126h165v-95h68v150l-118 9l-115 104v215l108 104h174zM418 855l-109 -92h-149l-108 92l27 50l156 -50l155 50z" />
    <glyph glyph-name="scaron" unicode="&#x161;" horiz-adv-x="460" 
d="M314 717l116 -104v-127h-165v96h-68v-146l120 -10l113 -104v-218l-108 -104h-183l-107 104v126h165v-95h68v150l-118 9l-115 104v215l108 104h174zM418 855l-109 -92h-149l-108 92l27 50l156 -50l155 50z" />
    <glyph glyph-name="Ydieresis" unicode="&#x178;" horiz-adv-x="440" 
d="M302 300v-300h-165v300l-142 417h165l59 -259h2l59 259h165zM374 771h-130v127h130v-127zM202 771h-130v127h130v-127z" />
    <glyph glyph-name="Zcaron" unicode="&#x17d;" horiz-adv-x="400" 
d="M179 135h194v-135h-294l-93 125l236 457h-174v135h267l100 -127zM388 855l-109 -92h-149l-108 92l27 50l156 -50l155 50z" />
    <glyph glyph-name="zcaron" unicode="&#x17e;" horiz-adv-x="400" 
d="M179 135h194v-135h-294l-93 125l236 457h-174v135h267l100 -127zM388 855l-109 -92h-149l-108 92l27 50l156 -50l155 50z" />
    <glyph glyph-name="florin" unicode="&#x192;" horiz-adv-x="500" 
d="M462 582h-97l-19 -118h104v-86h-117l-44 -281l-97 -97h-165v134h107l38 244h-97v86h111l25 158l97 95h154v-135z" />
    <glyph glyph-name="circumflex" unicode="&#x2c6;" horiz-adv-x="500" 
d="M255 813l-156 -50l-27 50l108 92h149l109 -92l-28 -50z" />
    <glyph glyph-name="caron" unicode="&#x2c7;" horiz-adv-x="500" 
d="M438 855l-109 -92h-149l-108 92l27 50l156 -50l155 50z" />
    <glyph glyph-name="uni02C9" unicode="&#x2c9;" 
d="M400 795h-328v78h328v-78z" />
    <glyph glyph-name="breve" unicode="&#x2d8;" 
d="M400 830l-62 -70h-203l-63 70v78h84v-70h160v70h84v-78z" />
    <glyph glyph-name="dotaccent" unicode="&#x2d9;" horiz-adv-x="320" 
d="M239 766h-167v137h167v-137z" />
    <glyph glyph-name="ring" unicode="&#x2da;" horiz-adv-x="320" 
d="M253 787l-46 -45h-90l-45 45v92l45 45h90l46 -45v-92zM123 873v-80h79v80h-79z" />
    <glyph glyph-name="ogonek" unicode="&#x2db;" horiz-adv-x="280" 
d="M126 -91l54 91h78l-58 -96v-47h56v-68h-94l-36 38v82z" />
    <glyph glyph-name="tilde" unicode="&#x2dc;" 
d="M259 763l-72 55l-71 -50l-44 40l136 97l74 -55l72 52l46 -41z" />
    <glyph glyph-name="hungarumlaut" unicode="&#x2dd;" 
d="M465 891l-11 -52l-122 -104l-50 43l80 136l52 19zM288 891l-11 -52l-122 -104l-50 43l81 136l51 19z" />
    <glyph glyph-name="uni03A9" unicode="&#x3a9;" horiz-adv-x="561" 
d="M121 126q-16 22 -31.5 50t-28 61.5t-20 72t-7.5 81.5q0 60 17 116t49.5 99.5t78.5 69.5t104 26q64 0 110 -30t75 -75t42.5 -97.5t13.5 -97.5q0 -43 -7.5 -83t-20.5 -76t-29 -65.5t-32 -51.5v-2h102v-124h-227v89q13 11 25 32t21 55q10 34 16 80.5t6 108.5q0 45 -5.5 82.5
t-17.5 65t-30.5 43t-43.5 15.5q-24 0 -43 -15.5t-32 -43.5t-20 -67.5t-7 -86.5q0 -112 21 -180t47 -89v-89h-227v124h101v2z" />
    <glyph glyph-name="uni03BC" unicode="&#x3bc;" horiz-adv-x="495" 
d="M436 135h57v-135h-71l-69 69l-69 -69h-78v-103h-165v565h165v-327h65v327h165v-327z" />
    <glyph glyph-name="pi" unicode="&#x3c0;" horiz-adv-x="527" 
d="M457 391v-257q0 -46 2.5 -77.5t7.5 -56.5h-137q-9 20 -12.5 54.5t-3.5 79.5v257h-86q-2 -31 -5.5 -78.5t-10 -101.5t-15 -109t-20.5 -102h-137q10 49 19 104t15 107.5t10 99.5t4 80q-47 0 -71 -7l-15 103q17 15 56 26t96 11h364l-9 -133h-52z" />
    <glyph glyph-name="endash" unicode="&#x2013;" horiz-adv-x="500" 
d="M500 319h-500v95h500v-95z" />
    <glyph glyph-name="emdash" unicode="&#x2014;" horiz-adv-x="1000" 
d="M1000 319h-1000v95h1000v-95z" />
    <glyph glyph-name="quoteleft" unicode="&#x2018;" horiz-adv-x="220" 
d="M190 485h-160v107l91 139l54 -38l-51 -71h66v-137z" />
    <glyph glyph-name="quoteright" unicode="&#x2019;" horiz-adv-x="220" 
d="M30 717h160v-107l-90 -139l-55 38l52 71h-67v137z" />
    <glyph glyph-name="quotesinglbase" unicode="&#x201a;" horiz-adv-x="220" 
d="M190 29l-90 -138l-55 37l52 72h-67v137h160v-108z" />
    <glyph glyph-name="quotedblleft" unicode="&#x201c;" horiz-adv-x="440" 
d="M407 485h-160v107l91 139l54 -38l-51 -71h66v-137zM192 485h-160v107l91 139l54 -38l-51 -71h66v-137z" />
    <glyph glyph-name="quotedblright" unicode="&#x201d;" horiz-adv-x="440" 
d="M247 717h160v-107l-90 -139l-55 38l52 71h-67v137zM32 717h160v-107l-90 -139l-55 38l52 71h-67v137z" />
    <glyph glyph-name="quotedblbase" unicode="&#x201e;" horiz-adv-x="440" 
d="M247 137h160v-108l-90 -138l-55 37l52 72h-67v137zM32 137h160v-108l-90 -138l-55 37l52 72h-67v137z" />
    <glyph glyph-name="dagger" unicode="&#x2020;" horiz-adv-x="517" 
d="M313 540h154v-109h-154v-431h-109v431h-154v109h154v177h109v-177z" />
    <glyph glyph-name="daggerdbl" unicode="&#x2021;" horiz-adv-x="517" 
d="M313 586h154v-109h-154v-131h154v-109h-154v-237h-109v237h-154v109h154v131h-154v109h154v131h109v-131z" />
    <glyph glyph-name="bullet" unicode="&#x2022;" horiz-adv-x="460" 
d="M333 324h-207v172h207v-172z" />
    <glyph glyph-name="ellipsis" unicode="&#x2026;" horiz-adv-x="1000" 
d="M249 0h-165v138h165v-138zM582 0h-165v138h165v-138zM915 0h-165v138h165v-138z" />
    <glyph glyph-name="perthousand" unicode="&#x2030;" horiz-adv-x="1240" 
d="M372 0h-75l231 717h71zM184 625v-263h50v263h-50zM662 355v-263h50v263h-50zM343 338l-70 -68h-128l-70 68v309l70 70h128l70 -70v-309zM821 68l-70 -68h-128l-70 68v309l70 70h128l70 -70v-309zM1165 68l-70 -68h-128l-70 68v309l70 70h128l70 -70v-309zM1006 355v-263
h50v263h-50z" />
    <glyph glyph-name="guilsinglleft" unicode="&#x2039;" horiz-adv-x="260" 
d="M202 558l-51 -192l51 -192l-51 -29l-93 144v156l93 143z" />
    <glyph glyph-name="guilsinglright" unicode="&#x203a;" horiz-adv-x="260" 
d="M202 445v-156l-93 -144l-51 29l51 192l-51 192l51 30z" />
    <glyph glyph-name="fraction" unicode="&#x2044;" horiz-adv-x="80" 
d="M-154 0l317 717h123l-317 -717h-123z" />
    <glyph glyph-name="Euro" unicode="&#x20ac;" horiz-adv-x="460" 
d="M211 261v-126h71v98h161v-129l-109 -104h-170l-118 104v157h-46v79h46v40h-46v79h46v154l108 104h180l109 -104v-125h-161v94h-71v-123h122v-79h-122v-40h122v-79h-122z" />
    <glyph glyph-name="uni2113" unicode="&#x2113;" horiz-adv-x="443" 
d="M434 142q-18 -41 -39.5 -68t-44.5 -43t-48 -22.5t-49 -6.5q-45 0 -75.5 13t-50 35t-29 49.5t-11.5 56.5q0 7 -1 11q-9 -8 -20 -18t-22 -18l-31 77q21 20 38.5 35.5t34.5 34.5v248q0 60 13 106t36 77t54 47t66 16q32 0 55.5 -14t38.5 -38.5t22 -58t7 -72.5q0 -79 -41 -160
t-112 -162v-63q1 -39 17 -61.5t44 -22.5q29 0 53 25t43 57zM225 405q17 25 31 51.5t23.5 52.5t14.5 49.5t5 42.5q0 32 -7.5 47.5t-27.5 15.5q-8 0 -15 -7t-12 -25t-8.5 -49t-3.5 -79v-99z" />
    <glyph glyph-name="trademark" unicode="&#x2122;" horiz-adv-x="880" 
d="M869 313h-88v326h-2l-117 -326h-52l-117 326h-2v-326h-88v404h142l91 -239l91 239h142v-404zM354 639h-123v-326h-97v326h-123v78h343v-78z" />
    <glyph glyph-name="Omega" unicode="&#x2126;" horiz-adv-x="561" 
d="M121 126q-16 22 -31.5 50t-28 61.5t-20 72t-7.5 81.5q0 60 17 116t49.5 99.5t78.5 69.5t104 26q64 0 110 -30t75 -75t42.5 -97.5t13.5 -97.5q0 -43 -7.5 -83t-20.5 -76t-29 -65.5t-32 -51.5v-2h102v-124h-227v89q13 11 25 32t21 55q10 34 16 80.5t6 108.5q0 45 -5.5 82.5
t-17.5 65t-30.5 43t-43.5 15.5q-24 0 -43 -15.5t-32 -43.5t-20 -67.5t-7 -86.5q0 -112 21 -180t47 -89v-89h-227v124h101v2z" />
    <glyph glyph-name="estimated" unicode="&#x212e;" horiz-adv-x="864" 
d="M185 348q-5 0 -5 -4v-195q0 -12 8 -22q48 -49 110 -77.5t134 -28.5q78 0 143.5 32t113.5 87h57q-54 -63 -136 -101.5t-179 -38.5q-82 0 -154.5 28t-126.5 77t-85.5 114t-31.5 139t31.5 139.5t85.5 114t126.5 77t154.5 28.5q83 0 155.5 -28.5t126.5 -77t85.5 -114
t31.5 -139.5v-10h-645zM684 570q0 13 -10 23q-48 47 -109 74.5t-133 27.5q-71 0 -133 -28.5t-110 -76.5q-9 -9 -9 -24v-192q0 -2 1.5 -4t3.5 -2h494q3 0 4 2t1 4v196z" />
    <glyph glyph-name="partialdiff" unicode="&#x2202;" horiz-adv-x="507" 
d="M58 744q10 8 25 17.5t34.5 17.5t45 13.5t56.5 5.5q48 0 92 -22.5t77.5 -68.5t54 -116.5t20.5 -166.5q0 -201 -64.5 -310t-183.5 -109q-45 0 -79 21.5t-57 55.5t-34.5 76t-11.5 83q0 64 15 113.5t40.5 83.5t59 51.5t71.5 17.5q21 0 38 -6t30 -14t21.5 -18t12.5 -17h1
q1 4 1 13.5v13.5q0 31 -8 65t-23.5 62.5t-38.5 47t-54 18.5q-36 0 -62 -15.5t-44 -32.5zM231 135q18 0 32.5 19t24.5 48t16 63t8 63q-2 8 -7 17.5t-13 18t-19.5 14t-25.5 5.5q-18 0 -31.5 -13.5t-23 -35t-14 -48.5t-4.5 -55q0 -38 14.5 -67t41.5 -29h1z" />
    <glyph glyph-name="Delta" unicode="&#x2206;" horiz-adv-x="555" 
d="M21 86l176 617h170l164 -613v-90h-510v86zM384 122l-63 215q-4 22 -10 47.5t-12.5 50t-11.5 47t-8 38.5h-2q-2 -14 -7 -33.5t-11 -42t-12.5 -46.5t-11.5 -47l-69 -229h218z" />
    <glyph glyph-name="product" unicode="&#x220f;" horiz-adv-x="631" 
d="M529 552v-648h-145v648h-138v-648h-145v648h-77v140h582v-140h-77z" />
    <glyph glyph-name="summation" unicode="&#x2211;" horiz-adv-x="471" 
d="M23 -96v100l186 298l-183 282v108h417v-126h-231v-3l156 -230l-181 -282v-3h268v-144h-432z" />
    <glyph glyph-name="minus" unicode="&#x2212;" horiz-adv-x="600" 
d="M48 416h504v-116h-504v116z" />
    <glyph glyph-name="uni2215" unicode="&#x2215;" horiz-adv-x="80" 
d="M-154 0l317 717h123l-317 -717h-123z" />
    <glyph glyph-name="uni2219" unicode="&#x2219;" horiz-adv-x="460" 
d="M313 289h-165v138h165v-138z" />
    <glyph glyph-name="radical" unicode="&#x221a;" horiz-adv-x="523" 
d="M339 -126h-111l-114 414l-64 -26l-20 85l171 70l65 -259q5 -30 10 -57.5t7 -44.5l2 -2q2 18 5.5 49t8.5 65l133 671h95z" />
    <glyph glyph-name="infinity" unicode="&#x221e;" horiz-adv-x="713" 
d="M670 284q0 -41 -13 -72.5t-34 -53t-48.5 -33t-56.5 -11.5q-19 0 -38 3.5t-38.5 14.5t-40 31t-42.5 52q-35 -47 -74 -74t-94 -27q-29 0 -55.5 11.5t-47.5 33t-33.5 51.5t-12.5 68q0 37 12 68t33 53t50 34t63 12q51 0 88 -24t72 -72q12 14 27 31t34.5 31.5t44.5 24t57 9.5
q30 0 56.5 -11t47 -32t32 -50.5t11.5 -66.5v-1zM203 192q35 0 61 24t52 58q-14 19 -26 36.5t-25.5 30.5t-29 20.5t-35.5 7.5q-38 0 -58.5 -25t-20.5 -67q0 -35 23.5 -60t56.5 -25h2zM514 369q-20 0 -36.5 -9t-30.5 -22t-26 -28t-22 -28q19 -26 34 -43.5t28.5 -28t27.5 -14.5
t31 -4t30.5 8.5t22.5 21t13.5 27.5t4.5 29q0 36 -20 63.5t-56 27.5h-1z" />
    <glyph glyph-name="integral" unicode="&#x222b;" horiz-adv-x="391" 
d="M345 746q-7 2 -13 4.5t-16 2.5q-13 0 -23 -6t-18 -20q-13 -18 -16.5 -60.5t-3.5 -99.5q0 -62 2 -115.5t4.5 -107t4.5 -111.5t2 -129q0 -65 -6.5 -115.5t-20.5 -83.5q-11 -23 -26 -39t-33 -26t-38 -14t-39 -4q-26 0 -44.5 5t-28.5 10l16 110q6 -2 14 -5t21 -3q9 0 18 3
t16 14q9 16 13 49.5t4 93.5q0 73 -2 132t-4.5 114.5t-4.5 111.5t-2 123q0 45 3 80.5t10 63t17.5 49t25.5 39.5q21 25 54 37.5t67 12.5q20 0 35 -3t24 -6z" />
    <glyph glyph-name="approxequal" unicode="&#x2248;" horiz-adv-x="465" 
d="M433 406q-19 -45 -51 -74.5t-69 -29.5q-25 0 -44.5 7.5t-47.5 27.5q-20 14 -35 23t-35 9q-14 0 -24.5 -6t-18.5 -15.5t-15 -21.5t-14 -23l-49 43q18 42 51 72.5t77 30.5q32 0 53 -11.5t35 -20.5q23 -14 38 -24t30 -10q25 0 40 20t31 46zM433 224q-19 -45 -51 -74.5
t-70 -29.5q-24 0 -44 8t-47 27q-20 14 -35.5 23.5t-35.5 9.5q-14 0 -24 -6t-18 -16t-15 -21.5t-14 -23.5l-49 43q18 42 51.5 72t75.5 30q33 0 54 -11t35 -20q20 -13 36 -23.5t32 -10.5q25 0 40 19.5t31 46.5z" />
    <glyph glyph-name="notequal" unicode="&#x2260;" horiz-adv-x="465" 
d="M321 424h102v-84h-129l-47 -120h176v-83h-204l-39 -99l-64 23l31 76h-107v83h135l46 120h-181v84h209l39 97l63 -22z" />
    <glyph glyph-name="lessequal" unicode="&#x2264;" horiz-adv-x="465" 
d="M46 303v91l374 209v-99l-300 -154v-2l301 -155v-99zM43 -25v85h383v-85h-383z" />
    <glyph glyph-name="greaterequal" unicode="&#x2265;" horiz-adv-x="465" 
d="M424 394v-91l-375 -209v99l300 155v2l-300 154v99zM43 -25v85h382v-85h-382z" />
    <glyph glyph-name="lozenge" unicode="&#x25ca;" horiz-adv-x="521" 
d="M315 -49h-118l-154 394l163 396h119l154 -396zM282 539q-5 17 -9.5 37.5t-6.5 37.5h-4q-4 -18 -8.5 -37.5t-9.5 -37.5l-74 -190l71 -204q5 -17 9 -37t6 -32h5q1 7 3 17t4.5 19.5t4.5 18t3 11.5l76 200z" />
    </font>
</defs>
</svg>
